<mxfile host="app.diagrams.net" modified="2024-05-31T23:59:25.552Z" agent="Mozilla/5.0 (Macintosh; Intel Mac OS X 10_15_7) AppleWebKit/537.36 (KHTML, like Gecko) Chrome/125.0.0.0 Safari/537.36" version="24.4.10" etag="LuRhjh3yp10xVs5Z_fya" type="github">
  <diagram name="PÃ¡gina-1" id="7pxthxufy_KoKKEjZDE0">
    <mxGraphModel>
      <root>
        <mxCell id="0" />
        <mxCell id="1" parent="0" />
      </root>
    </mxGraphModel>
  </diagram>
</mxfile>
